# xmcd
#
# Track frame offsets: 
#        182
#        20075
#        45752
#        74430
#        107477
#        126697
#        154685
#        178565
#
# Disc length: 2948 seconds
#
# Revision: 1
# Processed by: cddbd v1.5.2PL0 Copyright (c) Steve Scherf et al.
# Submitted via: ExactAudioCopy v1.0b6
#
DISCID=660b8208
DTITLE=The Farm - All Together Now (US CD)
DYEAR=1992
DGENRE=Alternative
TTITLE0=All Together Now (Single Mix)
TTITLE1=All Together Now (12" Mix)
TTITLE2=All Together Now (Indie Rock Mix)
TTITLE3=All Together Now (Farley - Heller 12" Remix)
TTITLE4=Over Again (Live Demo)
TTITLE5=All Together Now (Club Mix)
TTITLE6=All Together Now (Rocky and Diesel Remix)
TTITLE7=All Together Now (Dream Remix)
EXTD=
EXTT0=
EXTT1=
EXTT2=
EXTT3=
EXTT4=
EXTT5=
EXTT6=
EXTT7=
PLAYORDER=
